<svg width="16" height="16" viewBox="0 0 16 16" fill="none" xmlns="http://www.w3.org/2000/svg">
<path d="M8.98391 8L15.7784 1.20548C15.8468 1.14175 15.9017 1.06489 15.9397 0.979494C15.9778 0.894099 15.9982 0.801915 15.9999 0.708441C16.0015 0.614968 15.9843 0.522119 15.9493 0.435435C15.9143 0.348751 15.8622 0.270007 15.7961 0.203901C15.73 0.137795 15.6512 0.0856804 15.5646 0.0506673C15.4779 0.0156541 15.385 -0.00154089 15.2916 0.000108341C15.1981 0.00175758 15.1059 0.0222173 15.0205 0.0602665C14.9351 0.0983158 14.8583 0.153175 14.7945 0.221572L8 7.01609L1.20548 0.221572C1.07351 0.0986026 0.898963 0.0316571 0.71861 0.0348392C0.538257 0.0380214 0.36618 0.111083 0.238631 0.238631C0.111083 0.36618 0.0380214 0.538257 0.0348392 0.71861C0.0316571 0.898963 0.0986026 1.07351 0.221572 1.20548L7.01609 8L0.221572 14.7945C0.153175 14.8583 0.0983158 14.9351 0.0602665 15.0205C0.0222173 15.1059 0.00175758 15.1981 0.000108341 15.2916C-0.00154089 15.385 0.0156541 15.4779 0.0506673 15.5646C0.0856804 15.6512 0.137795 15.73 0.203901 15.7961C0.270007 15.8622 0.348751 15.9143 0.435435 15.9493C0.522119 15.9843 0.614968 16.0015 0.708441 15.9999C0.801915 15.9982 0.894099 15.9778 0.979494 15.9397C1.06489 15.9017 1.14175 15.8468 1.20548 15.7784L8 8.98391L14.7945 15.7784C14.8583 15.8468 14.9351 15.9017 15.0205 15.9397C15.1059 15.9778 15.1981 15.9982 15.2916 15.9999C15.385 16.0015 15.4779 15.9843 15.5646 15.9493C15.6512 15.9143 15.73 15.8622 15.7961 15.7961C15.8622 15.73 15.9143 15.6512 15.9493 15.5646C15.9843 15.4779 16.0015 15.385 15.9999 15.2916C15.9982 15.1981 15.9778 15.1059 15.9397 15.0205C15.9017 14.9351 15.8468 14.8583 15.7784 14.7945L8.98391 8Z" fill="#9D9D9D"/>
</svg>
