<svg width="14" height="14" viewBox="0 0 14 14" fill="none" xmlns="http://www.w3.org/2000/svg">
<path d="M7.86092 7L13.8061 1.05479C13.866 0.999028 13.914 0.931778 13.9473 0.857057C13.9806 0.782336 13.9985 0.701676 13.9999 0.619886C14.0013 0.538097 13.9863 0.456854 13.9557 0.381006C13.925 0.305157 13.8794 0.236256 13.8216 0.178413C13.7637 0.12057 13.6948 0.0749704 13.619 0.0443339C13.5431 0.0136974 13.4619 -0.00134828 13.3801 9.47983e-05C13.2983 0.00153788 13.2177 0.0194401 13.1429 0.0527332C13.0682 0.0860264 13.001 0.134028 12.9452 0.193876L7 6.13908L1.05479 0.193876C0.939321 0.0862773 0.786592 0.0277 0.628784 0.0304843C0.470975 0.0332687 0.320407 0.0971973 0.208802 0.208802C0.0971973 0.320407 0.0332687 0.470975 0.0304843 0.628784C0.0277 0.786592 0.0862773 0.939321 0.193876 1.05479L6.13908 7L0.193876 12.9452C0.134028 13.001 0.0860264 13.0682 0.0527332 13.1429C0.0194401 13.2177 0.00153788 13.2983 9.47983e-05 13.3801C-0.00134828 13.4619 0.0136974 13.5431 0.0443339 13.619C0.0749704 13.6948 0.12057 13.7637 0.178413 13.8216C0.236256 13.8794 0.305157 13.925 0.381006 13.9557C0.456854 13.9863 0.538097 14.0013 0.619886 13.9999C0.701676 13.9985 0.782336 13.9806 0.857057 13.9473C0.931778 13.914 0.999028 13.866 1.05479 13.8061L7 7.86092L12.9452 13.8061C13.001 13.866 13.0682 13.914 13.1429 13.9473C13.2177 13.9806 13.2983 13.9985 13.3801 13.9999C13.4619 14.0013 13.5431 13.9863 13.619 13.9557C13.6948 13.925 13.7637 13.8794 13.8216 13.8216C13.8794 13.7637 13.925 13.6948 13.9557 13.619C13.9863 13.5431 14.0013 13.4619 13.9999 13.3801C13.9985 13.2983 13.9806 13.2177 13.9473 13.1429C13.914 13.0682 13.866 13.001 13.8061 12.9452L7.86092 7Z" fill="white"/>
</svg>
