<svg width="27" height="27" viewBox="0 0 27 27" fill="none" xmlns="http://www.w3.org/2000/svg">
<g clip-path="url(#clip0_2_2957)">
<path d="M13.5 24.75C7.28663 24.75 2.25 19.7134 2.25 13.5C2.25 7.28663 7.28663 2.25 13.5 2.25C19.7134 2.25 24.75 7.28663 24.75 13.5C24.75 19.7134 19.7134 24.75 13.5 24.75ZM7.88963 20.538C9.48212 21.8112 11.4611 22.5032 13.5 22.5C15.7163 22.5 17.7446 21.699 19.3129 20.3715C18.5802 19.6197 17.7042 19.0225 16.7367 18.6152C15.7691 18.2078 14.7298 17.9986 13.68 18C12.5917 17.9987 11.5149 18.2237 10.5181 18.6606C9.52136 19.0975 8.62625 19.7368 7.88963 20.538ZM6.318 18.9225C7.26351 17.9191 8.4045 17.1199 9.67066 16.5743C10.9368 16.0287 12.3013 15.7482 13.68 15.75C15.0094 15.7483 16.326 16.0092 17.5542 16.5177C18.7825 17.0262 19.8982 17.7723 20.8372 18.7133C21.8003 17.3578 22.3691 15.762 22.4804 14.1029C22.5917 12.4438 22.2412 10.7864 21.4678 9.31439C20.6944 7.8424 19.5283 6.61345 18.099 5.76388C16.6696 4.9143 15.0328 4.47732 13.3702 4.50141C11.7076 4.5255 10.0841 5.00972 8.67996 5.90035C7.2758 6.79098 6.14583 8.0532 5.4154 9.54698C4.68498 11.0408 4.38266 12.7077 4.54198 14.3628C4.7013 16.018 5.31604 17.5966 6.318 18.9236V18.9225ZM13.5 14.625C12.3065 14.625 11.1619 14.1509 10.318 13.307C9.47411 12.4631 9 11.3185 9 10.125C9 8.93153 9.47411 7.78693 10.318 6.94302C11.1619 6.09911 12.3065 5.625 13.5 5.625C14.6935 5.625 15.8381 6.09911 16.682 6.94302C17.5259 7.78693 18 8.93153 18 10.125C18 11.3185 17.5259 12.4631 16.682 13.307C15.8381 14.1509 14.6935 14.625 13.5 14.625ZM13.5 12.375C14.0967 12.375 14.669 12.1379 15.091 11.716C15.5129 11.294 15.75 10.7217 15.75 10.125C15.75 9.52826 15.5129 8.95597 15.091 8.53401C14.669 8.11205 14.0967 7.875 13.5 7.875C12.9033 7.875 12.331 8.11205 11.909 8.53401C11.4871 8.95597 11.25 9.52826 11.25 10.125C11.25 10.7217 11.4871 11.294 11.909 11.716C12.331 12.1379 12.9033 12.375 13.5 12.375Z" fill="white"/>
</g>
<defs>
<clipPath id="clip0_2_2957">
<rect width="27" height="27" fill="white"/>
</clipPath>
</defs>
</svg>
