<svg width="32" height="31" viewBox="0 0 32 31" fill="none" xmlns="http://www.w3.org/2000/svg">
<g filter="url(#filter0_b_2_2772)">
<rect x="1" y="0.513489" width="29.5135" height="29.5135" rx="14.7568" fill="#51535D"/>
<rect x="1" y="0.513489" width="29.5135" height="29.5135" rx="14.7568" stroke="url(#paint0_linear_2_2772)" stroke-opacity="0.4"/>
</g>
<path d="M16 23.5135C11.5816 23.5135 8 19.9319 8 15.5135C8 11.0951 11.5816 7.51349 16 7.51349C20.4184 7.51349 24 11.0951 24 15.5135C24 19.9319 20.4184 23.5135 16 23.5135ZM12.0104 20.5183C13.1428 21.4236 14.5501 21.9158 16 21.9135C17.576 21.9135 19.0184 21.3439 20.1336 20.3999C19.6126 19.8653 18.9896 19.4406 18.3016 19.1509C17.6136 18.8613 16.8745 18.7125 16.128 18.7135C15.3541 18.7126 14.5884 18.8726 13.8796 19.1833C13.1707 19.4939 12.5342 19.9486 12.0104 20.5183ZM10.8928 19.3695C11.5652 18.6559 12.3765 18.0877 13.2769 17.6997C14.1773 17.3117 15.1476 17.1122 16.128 17.1135C17.0733 17.1123 18.0096 17.2978 18.883 17.6594C19.7564 18.021 20.5498 18.5516 21.2176 19.2207C21.9025 18.2568 22.3069 17.122 22.3861 15.9422C22.4652 14.7624 22.216 13.5838 21.666 12.5371C21.116 11.4903 20.2868 10.6164 19.2704 10.0122C18.2539 9.4081 17.09 9.09736 15.9077 9.11449C14.7254 9.13162 13.5709 9.47596 12.5724 10.1093C11.5739 10.7426 10.7704 11.6402 10.251 12.7024C9.73154 13.7647 9.51656 14.9501 9.62985 16.127C9.74315 17.304 10.1803 18.4266 10.8928 19.3703V19.3695ZM16 16.3135C15.1513 16.3135 14.3374 15.9763 13.7373 15.3762C13.1371 14.7761 12.8 13.9622 12.8 13.1135C12.8 12.2648 13.1371 11.4509 13.7373 10.8507C14.3374 10.2506 15.1513 9.91349 16 9.91349C16.8487 9.91349 17.6626 10.2506 18.2627 10.8507C18.8629 11.4509 19.2 12.2648 19.2 13.1135C19.2 13.9622 18.8629 14.7761 18.2627 15.3762C17.6626 15.9763 16.8487 16.3135 16 16.3135ZM16 14.7135C16.4243 14.7135 16.8313 14.5449 17.1314 14.2449C17.4314 13.9448 17.6 13.5378 17.6 13.1135C17.6 12.6891 17.4314 12.2822 17.1314 11.9821C16.8313 11.6821 16.4243 11.5135 16 11.5135C15.5757 11.5135 15.1687 11.6821 14.8686 11.9821C14.5686 12.2822 14.4 12.6891 14.4 13.1135C14.4 13.5378 14.5686 13.9448 14.8686 14.2449C15.1687 14.5449 15.5757 14.7135 16 14.7135Z" fill="white"/>
<defs>
<filter id="filter0_b_2_2772" x="-5.5" y="-5.98651" width="42.5137" height="42.5135" filterUnits="userSpaceOnUse" color-interpolation-filters="sRGB">
<feFlood flood-opacity="0" result="BackgroundImageFix"/>
<feGaussianBlur in="BackgroundImageFix" stdDeviation="3"/>
<feComposite in2="SourceAlpha" operator="in" result="effect1_backgroundBlur_2_2772"/>
<feBlend mode="normal" in="SourceGraphic" in2="effect1_backgroundBlur_2_2772" result="shape"/>
</filter>
<linearGradient id="paint0_linear_2_2772" x1="1.27843" y1="2.57942" x2="31.1345" y2="3.2724" gradientUnits="userSpaceOnUse">
<stop stop-color="white" stop-opacity="0.2"/>
<stop offset="0.475322" stop-color="white" stop-opacity="0.1"/>
<stop offset="1" stop-color="white" stop-opacity="0.2"/>
</linearGradient>
</defs>
</svg>
