<svg width="29" height="29" viewBox="0 0 29 29" fill="none" xmlns="http://www.w3.org/2000/svg">
<g clip-path="url(#clip0_2_2867)">
<path d="M24.1667 19.3333C22.8339 19.3333 21.75 18.2495 21.75 16.9167C21.75 15.5839 22.8339 14.5 24.1667 14.5C25.4995 14.5 26.5833 15.5839 26.5833 16.9167C26.5833 18.2495 25.4995 19.3333 24.1667 19.3333Z" fill="#51535D"/>
<path d="M4.83366 19.3333C3.50087 19.3333 2.41699 18.2495 2.41699 16.9167C2.41699 15.5839 3.50087 14.5 4.83366 14.5C6.16645 14.5 7.25033 15.5839 7.25033 16.9167C7.25033 18.2495 6.16645 19.3333 4.83366 19.3333Z" fill="#51535D"/>
<path d="M14.5 19.9375C12.5014 19.9375 10.875 18.3111 10.875 16.3125C10.875 14.3139 12.5014 12.6875 14.5 12.6875C16.4986 12.6875 18.125 14.3139 18.125 16.3125C18.125 18.3111 16.4986 19.9375 14.5 19.9375Z" fill="#51535D"/>
<path d="M20.2399 27.7917H8.76074C8.26049 27.7917 7.85449 27.3857 7.85449 26.8854V25.0729C7.85449 23.2399 9.34437 21.75 11.1774 21.75H17.8232C19.6563 21.75 21.1462 23.2399 21.1462 25.0729V26.8854C21.1462 27.3857 20.7402 27.7917 20.2399 27.7917Z" fill="#51535D"/>
<path d="M25.6767 20.5417H22.6559C22.2692 20.5417 21.9067 20.6021 21.5684 20.7229C22.9906 21.9627 23.5621 23.5057 23.5621 25.375H28.0934C28.5888 25.375 28.9996 24.9642 28.9996 24.4687V23.8646C28.9996 22.0279 27.5134 20.5417 25.6767 20.5417Z" fill="#51535D"/>
<path d="M6.34375 20.5417H3.32292C1.48625 20.5417 0 22.0279 0 23.8646V24.4687C0 24.9642 0.410833 25.375 0.90625 25.375H5.4375C5.4375 23.5057 6.00904 21.9627 7.43125 20.7229C7.09292 20.6021 6.73042 20.5417 6.34375 20.5417Z" fill="#51535D"/>
<path d="M18.6895 10.875H10.3109C9.8747 10.875 9.50133 10.5645 9.42037 10.1367L8.47425 5.10158C8.34012 4.38745 9.06149 3.80987 9.73212 4.10591L11.7621 5.00733L13.7172 1.65904C14.0435 1.102 14.957 1.102 15.2832 1.65904L17.2383 5.00733L19.2683 4.10591C19.9341 3.81108 20.6603 4.38504 20.5274 5.10158L19.5812 10.1367C19.5003 10.5645 19.1257 10.875 18.6895 10.875Z" fill="#51535D"/>
</g>
<defs>
<clipPath id="clip0_2_2867">
<rect width="29" height="29" fill="white"/>
</clipPath>
</defs>
</svg>
