<svg width="34" height="34" viewBox="0 0 34 34" fill="none" xmlns="http://www.w3.org/2000/svg">
<g clip-path="url(#clip0_81_323)">
<path d="M23.1687 34C22.9297 34 22.7105 33.8738 22.591 33.668L16.3488 22.857C16.2625 22.7043 16.2359 22.525 16.2824 22.3523C16.3289 22.1797 16.4418 22.0336 16.5945 21.9473L25.9312 16.5617C26.0308 16.5019 26.1504 16.4754 26.2633 16.4754C26.323 16.4754 26.3761 16.482 26.4359 16.4953C26.6086 16.5418 26.7547 16.6547 26.841 16.8074L33.0832 27.6184C33.2094 27.8375 33.2027 28.1031 33.0633 28.3156C32.9371 28.5016 32.7312 28.6144 32.5054 28.6144C32.4789 28.6144 32.4523 28.6144 32.4324 28.6078L26.2566 27.8973L23.7797 33.6016C23.6801 33.834 23.4609 33.9867 23.2086 34C23.1953 34 23.182 34 23.1687 34Z" fill="black"/>
<path d="M32.5059 27.9504L25.8453 27.1801L23.1691 33.3359L16.9336 22.525L26.2637 17.1328L32.5059 27.9504Z" fill="#E55C10"/>
<path d="M18.3145 21.7281L24.882 17.9297L29.5371 25.998L24.8488 25.4602L22.9695 29.7965L18.3145 21.7281Z" fill="#FF8500"/>
<path d="M22.9698 30.1285C22.8502 30.1285 22.744 30.0621 22.6842 29.9625L18.0291 21.8941C17.9827 21.8211 17.976 21.7281 17.9959 21.6418C18.0159 21.5555 18.0756 21.4824 18.1487 21.4426L24.7163 17.6508C24.7959 17.6043 24.8823 17.5977 24.9686 17.6176C25.0549 17.6375 25.128 17.6973 25.1678 17.7703L29.8295 25.832C29.8893 25.9383 29.8893 26.0777 29.8229 26.1773C29.7565 26.2836 29.6303 26.3367 29.5041 26.3234L25.0549 25.8121L23.2752 29.916C23.2221 30.0289 23.1159 30.1086 22.9897 30.1152C22.9831 30.1219 22.9764 30.1219 22.9698 30.1285ZM18.7663 21.8477L22.9299 29.0594L24.5436 25.334C24.6034 25.2012 24.7428 25.1215 24.8889 25.1348L28.9264 25.5996L24.7627 18.3879L18.7663 21.8477Z" fill="black"/>
<path d="M10.8307 34C10.8174 34 10.8042 34 10.7909 34C10.5385 33.9867 10.3194 33.834 10.2198 33.6016L7.74947 27.8973L1.57369 28.6078C1.54712 28.6078 1.52056 28.6144 1.50064 28.6144C1.2815 28.6144 1.069 28.5016 0.942827 28.3156C0.803374 28.1031 0.796733 27.8375 0.922905 27.6184L7.16509 16.8074C7.25142 16.6547 7.39751 16.5418 7.57017 16.4953C7.6233 16.482 7.68306 16.4754 7.74283 16.4754C7.85572 16.4754 7.97525 16.5019 8.07486 16.5617L17.3983 21.9473C17.551 22.0336 17.6639 22.1797 17.7104 22.3523C17.7569 22.525 17.7303 22.7043 17.644 22.857L11.4018 33.668C11.2823 33.8738 11.0631 34 10.8307 34Z" fill="black"/>
<path d="M1.49414 27.9504L8.16133 27.1801L10.8309 33.3359L17.0664 22.525L7.73633 17.1328L1.49414 27.9504Z" fill="#E55C10"/>
<path d="M15.6846 21.7281L9.11699 17.9297L4.46191 25.998L9.1502 25.4602L11.0295 29.7965L15.6846 21.7281Z" fill="#FF8500"/>
<path d="M11.0298 30.1285C11.0232 30.1285 11.0165 30.1285 11.0099 30.1285C10.8837 30.1219 10.7708 30.0422 10.7243 29.9293L8.94466 25.8254L4.49544 26.3367C4.36927 26.35 4.24973 26.2969 4.17669 26.1906C4.10364 26.0844 4.10364 25.9516 4.16341 25.8453L8.83177 17.7703C8.92473 17.6109 9.12395 17.5578 9.28333 17.6508L15.8509 21.4426C15.924 21.4891 15.9837 21.5621 16.0036 21.6418C16.0236 21.7281 16.0169 21.8145 15.9704 21.8941L11.3154 29.9625C11.2556 30.0621 11.1493 30.1285 11.0298 30.1285ZM9.15052 25.1281C9.28333 25.1281 9.40286 25.2078 9.45598 25.3273L11.0763 29.0527L15.2333 21.8477L9.23684 18.3879L5.07317 25.593L9.11067 25.1281H9.15052Z" fill="black"/>
<path d="M17.066 23.6672C23.6015 23.6672 28.8996 18.3691 28.8996 11.8336C28.8996 5.29808 23.6015 0 17.066 0C10.5305 0 5.23242 5.29808 5.23242 11.8336C5.23242 18.3691 10.5305 23.6672 17.066 23.6672Z" fill="black"/>
<path d="M17.066 23.0031C23.2348 23.0031 28.2355 18.0024 28.2355 11.8336C28.2355 5.66483 23.2348 0.664062 17.066 0.664062C10.8973 0.664062 5.89648 5.66483 5.89648 11.8336C5.89648 18.0024 10.8973 23.0031 17.066 23.0031Z" fill="#FFA017"/>
<path d="M17.0732 20.6324C21.9327 20.6324 25.8721 16.6931 25.8721 11.8336C25.8721 6.97414 21.9327 3.03477 17.0732 3.03477C12.2138 3.03477 8.27441 6.97414 8.27441 11.8336C8.27441 16.6931 12.2138 20.6324 17.0732 20.6324Z" fill="black"/>
<path d="M17.0664 19.9684C21.5591 19.9684 25.2012 16.3263 25.2012 11.8336C25.2012 7.34089 21.5591 3.69883 17.0664 3.69883C12.5737 3.69883 8.93164 7.34089 8.93164 11.8336C8.93164 16.3263 12.5737 19.9684 17.0664 19.9684Z" fill="#FFF0C5"/>
<path d="M17.0138 18.0227C16.2235 18.0227 15.4864 17.8832 14.8157 17.6109C14.1118 17.3188 13.5407 16.8871 13.1224 16.316C12.6841 15.725 12.4716 15.0012 12.4915 14.1711C12.4915 14.1379 12.4982 14.1047 12.4982 14.0781L12.5048 14.0316C12.5579 13.7129 12.8368 13.4738 13.1622 13.4738H15.6857C16.0509 13.4738 16.3497 13.7727 16.3497 14.1379C16.3497 14.2508 16.3763 14.3438 16.4228 14.4301C16.4692 14.5164 16.5423 14.5828 16.6353 14.6359C16.7349 14.6891 16.8544 14.7156 17.0138 14.7156C17.3392 14.7156 17.4786 14.616 17.5517 14.5363C17.6314 14.4566 17.7243 14.3238 17.7243 14.0516C17.7243 13.8324 17.6646 13.673 17.5251 13.5402C17.3857 13.4074 17.14 13.3344 16.8013 13.3344H15.6989C15.3337 13.3344 15.0349 13.0356 15.0349 12.6703V10.7578C15.0349 10.3926 15.3337 10.0938 15.6989 10.0938H16.8743C17.0536 10.0938 17.1931 10.0672 17.2993 10.0141C17.3857 9.96758 17.4388 9.91446 17.4853 9.84141C17.5384 9.74844 17.5583 9.63555 17.5583 9.50274C17.5583 9.25703 17.4786 9.1375 17.4189 9.0711C17.3857 9.03789 17.306 8.94492 17.0138 8.94492C16.8943 8.94492 16.8013 8.96485 16.7216 9.00469C16.6485 9.03789 16.6021 9.08438 16.5622 9.1375C16.5423 9.16407 16.5157 9.21719 16.5157 9.3168C16.5157 9.68203 16.2169 9.98086 15.8517 9.98086H13.3349C13.0493 9.98086 12.797 9.79492 12.704 9.5293L12.6907 9.48282C12.6708 9.42305 12.6575 9.35664 12.6575 9.29688C12.631 8.55977 12.8235 7.90235 13.2153 7.33789C13.5939 6.79336 14.1317 6.36172 14.8025 6.06953C15.4466 5.78399 16.1771 5.63789 16.9806 5.63789C18.2755 5.63789 19.3446 5.95 20.1548 6.56758C21.0314 7.225 21.4696 8.16133 21.4696 9.33672C21.4696 10.0141 21.2837 10.6117 20.9118 11.1098C20.7657 11.3023 20.5997 11.4816 20.4005 11.6543C20.6196 11.827 20.8189 12.0262 20.9915 12.2387C21.4232 12.7832 21.6423 13.4406 21.6423 14.1844C21.6423 14.9813 21.4232 15.6785 20.9982 16.2695C20.5864 16.8406 20.0153 17.2855 19.3114 17.5844C18.6341 17.8699 17.8638 18.016 17.0138 18.0227Z" fill="black"/>
<path d="M17.013 17.3586C16.3091 17.3586 15.6584 17.2391 15.0673 16.9934C14.4763 16.7477 14.0048 16.3891 13.6529 15.9176C13.3009 15.4461 13.1349 14.8684 13.1482 14.1844L13.1548 14.1379H15.6783C15.6783 14.3637 15.7314 14.5695 15.8377 14.7621C15.9439 14.9547 16.0966 15.1008 16.2959 15.2137C16.4951 15.3266 16.7275 15.3863 16.9998 15.3863C17.4248 15.3863 17.7568 15.2602 18.0091 15.0145C18.2548 14.7688 18.381 14.45 18.381 14.0582C18.381 13.6664 18.2482 13.3211 17.9759 13.0688C17.7037 12.8098 17.3119 12.6836 16.7939 12.6836H15.6916V10.7711H16.8669C17.1591 10.7711 17.4048 10.718 17.6041 10.6117C17.8033 10.5055 17.956 10.3594 18.0556 10.1668C18.1619 9.97422 18.2084 9.75508 18.2084 9.50938C18.2084 9.15743 18.1021 8.86524 17.8962 8.63282C17.6904 8.4004 17.3916 8.2875 16.9998 8.2875C16.7806 8.2875 16.5814 8.33399 16.4087 8.42032C16.2361 8.50665 16.0966 8.63282 15.997 8.78555C15.8974 8.93829 15.8443 9.12422 15.8443 9.33008H13.3275L13.3142 9.2836C13.2943 8.69258 13.4404 8.17461 13.7525 7.72969C14.0646 7.28477 14.5029 6.93282 15.0607 6.68711C15.6185 6.44141 16.256 6.31524 16.9732 6.31524C18.122 6.31524 19.0517 6.58086 19.749 7.10547C20.4462 7.63672 20.7982 8.38047 20.7982 9.34336C20.7982 9.88125 20.6587 10.3395 20.3732 10.718C20.0877 11.0965 19.6693 11.4219 19.1115 11.6941C19.6759 11.9066 20.1275 12.2254 20.4662 12.6504C20.8048 13.0754 20.9709 13.5867 20.9709 14.1844C20.9709 14.8418 20.7982 15.4063 20.4529 15.8777C20.1076 16.3492 19.6361 16.7145 19.0384 16.9734C18.4541 17.2324 17.7767 17.3586 17.013 17.3586Z" fill="#FFA017"/>
</g>
<defs>
<clipPath id="clip0_81_323">
<rect width="34" height="34" fill="white"/>
</clipPath>
</defs>
</svg>
