<svg width="40" height="40" viewBox="0 0 40 40" fill="none" xmlns="http://www.w3.org/2000/svg">
<path d="M17.6291 17.82L7.09766 33.4629L11.9605 33.2943L14.2291 38.2657L24.7605 22.6229L17.6291 17.82Z" fill="#F05262"/>
<path d="M14.2287 38.5514C14.2201 38.5514 14.2144 38.5514 14.2058 38.5514C14.103 38.5429 14.0115 38.48 13.9687 38.3857L11.7801 33.5886L7.10581 33.7514C7.01153 33.7543 6.89724 33.6971 6.84581 33.6057C6.79438 33.5114 6.79724 33.3971 6.85724 33.3086L17.3887 17.6657C17.4315 17.6029 17.4972 17.56 17.5715 17.5457C17.6458 17.5314 17.723 17.5457 17.7858 17.5886L24.9172 22.3914C25.0487 22.48 25.083 22.6571 24.9944 22.7886L14.463 38.4314C14.4115 38.5029 14.323 38.5514 14.2287 38.5514ZM11.9601 33.0086C12.0715 33.0086 12.1744 33.0743 12.2201 33.1743L14.2744 37.68L24.363 22.7L17.7058 18.2171L7.64581 33.1571L11.9515 33.0086H11.9601Z" fill="#231F20"/>
<path d="M22.3717 17.82L15.2402 22.6229L25.7717 38.2657L28.0402 33.2943L32.9031 33.4629L22.3717 17.82Z" fill="#F05262"/>
<path d="M25.7718 38.5514C25.6776 38.5514 25.589 38.5057 25.5347 38.4257L15.0033 22.7829C14.9147 22.6514 14.949 22.4743 15.0804 22.3857L22.2118 17.5829C22.2747 17.54 22.3518 17.5257 22.4261 17.54C22.5004 17.5543 22.5661 17.5972 22.609 17.66L33.1404 33.3029C33.2004 33.3914 33.2061 33.5057 33.1518 33.6C33.1004 33.6943 32.989 33.7514 32.8918 33.7457L28.2176 33.5829L26.029 38.38C25.9861 38.4743 25.8947 38.5372 25.7918 38.5457C25.789 38.5486 25.7804 38.5514 25.7718 38.5514ZM15.6347 22.7L25.7233 37.68L27.7776 33.1743C27.8261 33.0686 27.9433 33.0029 28.0461 33.0086L32.3518 33.1572L22.2947 18.2172L15.6347 22.7Z" fill="#231F20"/>
<path d="M34.5716 15.98C34.5716 17.0514 33.323 17.9686 33.0944 18.9686C32.8601 20.0029 33.5801 21.3686 33.1316 22.3029C32.6744 23.2514 31.1516 23.5372 30.5001 24.3514C29.8459 25.1714 29.9059 26.7172 29.0859 27.3714C28.2716 28.0229 26.7773 27.6229 25.8287 28.08C24.8944 28.5314 24.2801 29.9514 23.243 30.1886C22.2401 30.4172 21.0716 29.4086 20.0001 29.4086C18.9287 29.4086 17.7601 30.4172 16.7573 30.1886C15.723 29.9543 15.1059 28.5314 14.1716 28.08C13.223 27.6229 11.7287 28.0229 10.9144 27.3714C10.0944 26.7172 10.1544 25.1714 9.50014 24.3514C8.84871 23.5372 7.32585 23.2514 6.86871 22.3029C6.41728 21.3686 7.14014 20.0029 6.90585 18.9686C6.67728 17.9657 5.42871 17.0486 5.42871 15.98C5.42871 14.9086 6.67728 13.9914 6.90585 12.9914C7.14014 11.9572 6.42014 10.5914 6.86871 9.65716C7.32585 8.70859 8.84871 8.42287 9.50014 7.60859C10.1544 6.78859 10.0944 5.24287 10.9144 4.58859C11.7287 3.93716 13.223 4.33716 14.1716 3.88002C15.1059 3.42859 15.7201 2.00859 16.7573 1.77144C17.7601 1.54287 18.9287 2.55144 20.0001 2.55144C21.0716 2.55144 22.2401 1.54287 23.243 1.77144C24.2773 2.00573 24.8944 3.42859 25.8287 3.88002C26.7773 4.33716 28.2716 3.93716 29.0859 4.58859C29.9059 5.24287 29.8459 6.78859 30.5001 7.60859C31.1516 8.42287 32.6744 8.70859 33.1316 9.65716C33.583 10.5914 32.8601 11.9572 33.0944 12.9914C33.323 13.9914 34.5716 14.9086 34.5716 15.98Z" fill="#FFD23C"/>
<path d="M33.0479 12.6172C33.0393 12.8143 33.0479 13.0086 33.0936 13.1886C33.3222 14.1229 34.5707 14.9772 34.5707 15.9772C34.5707 14.9057 33.3222 13.9886 33.0936 12.9886C33.0679 12.8686 33.0536 12.7457 33.0479 12.6172Z" fill="#FFE693"/>
<path d="M33.0943 18.7686C33.0514 18.9486 33.04 19.1429 33.0486 19.34C33.0543 19.2143 33.0657 19.0886 33.0943 18.9686C33.3228 17.9657 34.5714 17.0514 34.5714 15.98C34.5714 16.9772 33.3228 17.8314 33.0943 18.7686Z" fill="#FFE693"/>
<path d="M6.868 10.08C7.32514 9.1943 8.848 8.92859 9.49943 8.16859C10.1537 7.40573 10.0937 5.96001 10.9137 5.35144C11.728 4.74573 13.2223 5.11716 14.1709 4.68859C15.1051 4.26859 15.7194 2.94287 16.7566 2.72287C17.7594 2.51144 18.928 3.45144 19.9994 3.45144C21.0709 3.45144 22.2394 2.51144 23.2423 2.72287C24.2766 2.94287 24.8937 4.26859 25.828 4.68859C26.7766 5.1143 28.2709 4.74287 29.0851 5.35144C29.9051 5.96287 29.8451 7.40573 30.4994 8.16859C31.1509 8.92859 32.6737 9.1943 33.1309 10.08C33.2166 10.2457 33.2594 10.4286 33.2737 10.62C33.2966 10.2714 33.268 9.94287 33.1309 9.6543C32.6737 8.70573 31.1509 8.42002 30.4994 7.60573C29.8451 6.78573 29.9051 5.24001 29.0851 4.58573C28.2709 3.9343 26.7766 4.3343 25.828 3.87716C24.8937 3.42573 24.2794 2.00573 23.2423 1.76859C22.2394 1.54287 21.0709 2.55144 19.9994 2.55144C18.928 2.55144 17.7594 1.54287 16.7566 1.76859C15.7223 2.00287 15.1051 3.42573 14.1709 3.87716C13.2223 4.3343 11.728 3.9343 10.9137 4.58573C10.0937 5.24001 10.1537 6.78573 9.49943 7.60573C8.848 8.42002 7.32514 8.70573 6.868 9.6543C6.728 9.94287 6.70228 10.2714 6.72514 10.62C6.73943 10.4286 6.78228 10.2457 6.868 10.08Z" fill="#FFE693"/>
<path d="M6.95157 19.34C6.96014 19.1429 6.95157 18.9486 6.90585 18.7686C6.67728 17.8343 5.42871 16.98 5.42871 15.98C5.42871 17.0514 6.67728 17.9686 6.90585 18.9686C6.93157 19.0886 6.94585 19.2114 6.95157 19.34Z" fill="#FFE693"/>
<path d="M6.95157 12.6172C6.94585 12.7429 6.93443 12.8686 6.90585 12.9886C6.67728 13.9914 5.42871 14.9086 5.42871 15.98C5.42871 14.98 6.67728 14.1257 6.90585 13.1914C6.94871 13.0086 6.96014 12.8172 6.95157 12.6172Z" fill="#FFE693"/>
<path d="M33.1315 21.8771C32.6744 22.7629 31.1515 23.0286 30.5001 23.7886C29.8458 24.5514 29.9058 25.9971 29.0858 26.6057C28.2716 27.2114 26.7773 26.84 25.8287 27.2686C24.8944 27.6886 24.2801 29.0143 23.243 29.2343C22.2401 29.4457 21.0715 28.5057 20.0001 28.5057C18.9287 28.5057 17.7601 29.4457 16.7573 29.2343C15.723 29.0143 15.1058 27.6886 14.1715 27.2686C13.223 26.8429 11.7287 27.2143 10.9144 26.6057C10.0944 25.9943 10.1544 24.5514 9.50012 23.7886C8.84869 23.0286 7.32584 22.7629 6.86869 21.8771C6.78298 21.7114 6.74012 21.5286 6.72584 21.3371C6.70298 21.6857 6.73155 22.0143 6.86869 22.3029C7.32584 23.2514 8.84869 23.5371 9.50012 24.3514C10.1544 25.1714 10.0944 26.7171 10.9144 27.3714C11.7287 28.0229 13.223 27.6229 14.1715 28.08C15.1058 28.5314 15.7201 29.9514 16.7573 30.1886C17.7601 30.4171 18.9287 29.4086 20.0001 29.4086C21.0715 29.4086 22.2401 30.4171 23.243 30.1886C24.2773 29.9543 24.8944 28.5314 25.8287 28.08C26.7773 27.6229 28.2716 28.0229 29.0858 27.3714C29.9058 26.7171 29.8458 25.1714 30.5001 24.3514C31.1515 23.5371 32.6744 23.2514 33.1315 22.3029C33.2715 22.0143 33.2973 21.6857 33.2744 21.3371C33.2601 21.5286 33.2173 21.7114 33.1315 21.8771Z" fill="#DFB835"/>
<path d="M22.9341 30.5057C22.4169 30.5057 21.8941 30.2914 21.3855 30.0829C20.9169 29.8914 20.4312 29.6914 20.0026 29.6914C19.5741 29.6914 19.0884 29.8914 18.6198 30.0829C17.9884 30.3429 17.3341 30.6086 16.6969 30.4657C16.0341 30.3143 15.5512 29.7772 15.0855 29.26C14.7398 28.8772 14.4169 28.5143 14.0512 28.3372C13.6769 28.1572 13.1827 28.1257 12.6598 28.0943C11.9712 28.0514 11.2569 28.0086 10.7398 27.5943C10.2169 27.1772 10.0169 26.4886 9.82265 25.8257C9.67694 25.3257 9.53979 24.8514 9.27979 24.5286C9.02551 24.2086 8.59694 23.9714 8.14265 23.72C7.53408 23.3829 6.90836 23.0343 6.61408 22.4286C6.32836 21.8343 6.44265 21.1314 6.55694 20.4543C6.64265 19.9343 6.72265 19.4457 6.63122 19.0343C6.54265 18.6457 6.26551 18.2514 5.96836 17.8314C5.56551 17.26 5.14551 16.6686 5.14551 15.98C5.14551 15.2914 5.56265 14.7 5.96836 14.1286C6.26265 13.7114 6.54265 13.3172 6.63122 12.9257C6.72551 12.5143 6.64265 12.0257 6.55694 11.5057C6.44551 10.8257 6.32836 10.1257 6.61408 9.53144C6.90551 8.92572 7.53408 8.57715 8.14265 8.24001C8.59694 7.98858 9.02551 7.74858 9.27979 7.42858C9.53694 7.10572 9.67694 6.63144 9.82265 6.13144C10.0169 5.46572 10.2169 4.78001 10.7398 4.36287C11.2598 3.94858 11.9712 3.90572 12.6598 3.86287C13.1827 3.83144 13.6741 3.80001 14.0512 3.62001C14.4169 3.44286 14.7398 3.08286 15.0855 2.69715C15.5512 2.17715 16.0341 1.64001 16.6969 1.49144C17.3312 1.34572 17.9855 1.61429 18.6198 1.87429C19.0855 2.06572 19.5712 2.26572 19.9998 2.26572C20.4284 2.26572 20.9141 2.06572 21.3826 1.87429C22.0141 1.61429 22.6684 1.34572 23.3055 1.49144C23.9684 1.64286 24.4512 2.18001 24.9169 2.69715C25.2626 3.08001 25.5855 3.44286 25.9512 3.62001C26.3255 3.80001 26.8198 3.83144 27.3426 3.86287C28.0312 3.90572 28.7455 3.94858 29.2626 4.36287C29.7855 4.78001 29.9855 5.46858 30.1798 6.13144C30.3255 6.63144 30.4626 7.10572 30.7226 7.42858C30.9769 7.74858 31.4055 7.98572 31.8598 8.23715C32.4684 8.57429 33.0941 8.92286 33.3884 9.52858C33.6741 10.1229 33.5598 10.8257 33.4455 11.5029C33.3598 12.0229 33.2798 12.5114 33.3712 12.9229C33.4598 13.3114 33.7369 13.7057 34.0341 14.1257C34.4369 14.6972 34.8569 15.2886 34.8569 15.9772C34.8569 16.6657 34.4398 17.2572 34.0341 17.8286C33.7398 18.2457 33.4598 18.64 33.3712 19.0314C33.2769 19.4429 33.3598 19.9314 33.4455 20.4514C33.5569 21.1314 33.6741 21.8314 33.3884 22.4257C33.0969 23.0314 32.4684 23.38 31.8598 23.7172C31.4055 23.9686 30.9769 24.2086 30.7226 24.5286C30.4655 24.8514 30.3255 25.3257 30.1798 25.8257C29.9855 26.4914 29.7855 27.1772 29.2626 27.5943C28.7426 28.0086 28.0312 28.0514 27.3426 28.0943C26.8198 28.1257 26.3284 28.1572 25.9512 28.3372C25.5855 28.5143 25.2626 28.8743 24.9169 29.26C24.4512 29.78 23.9684 30.3171 23.3055 30.4657C23.1826 30.4943 23.0569 30.5057 22.9341 30.5057ZM19.9998 29.1229C20.5426 29.1229 21.0798 29.3429 21.5998 29.5571C22.1741 29.7914 22.7198 30.0172 23.1769 29.9114C23.6626 29.8 24.0655 29.3543 24.4884 28.88C24.8541 28.4714 25.2341 28.0514 25.6998 27.8257C26.1769 27.5943 26.7512 27.56 27.3055 27.5257C27.9341 27.4886 28.5255 27.4514 28.9055 27.1486C29.2855 26.8429 29.4541 26.2714 29.6312 25.6657C29.7855 25.1343 29.9484 24.5829 30.2741 24.1714C30.5998 23.7629 31.0998 23.4857 31.5798 23.2172C32.1341 22.9086 32.6569 22.62 32.8712 22.1743C33.0798 21.7429 32.9826 21.16 32.8798 20.54C32.7884 19.9886 32.6941 19.42 32.8112 18.9C32.9255 18.4 33.2512 17.94 33.5626 17.4943C33.9312 16.9714 34.2798 16.4772 34.2798 15.9714C34.2798 15.4657 33.9312 14.9714 33.5626 14.4486C33.2484 14.0029 32.9226 13.5429 32.8112 13.0429C32.6941 12.5229 32.7884 11.9543 32.8769 11.4029C32.9798 10.7857 33.0769 10.2 32.8684 9.76858C32.6541 9.32572 32.1312 9.03429 31.5769 8.72572C31.0941 8.45715 30.5969 8.18001 30.2712 7.77144C29.9426 7.36001 29.7826 6.81144 29.6284 6.27715C29.4512 5.67144 29.2855 5.10001 28.9026 4.79429C28.5255 4.49144 27.9312 4.45715 27.3026 4.41715C26.7484 4.38286 26.1741 4.34858 25.6969 4.11715C25.2312 3.89144 24.8512 3.47144 24.4855 3.06286C24.0598 2.58858 23.6598 2.14286 23.1741 2.03144C22.7141 1.92572 22.1712 2.14858 21.5969 2.38572C21.0798 2.61429 20.5426 2.83715 19.9998 2.83715C19.4569 2.83715 18.9198 2.61715 18.3998 2.40286C17.8255 2.16858 17.2827 1.94572 16.8227 2.04858C16.3369 2.16001 15.9341 2.60572 15.5112 3.08001C15.1455 3.48858 14.7655 3.90858 14.2998 4.13429C13.8227 4.36572 13.2484 4.40001 12.6941 4.43429C12.0655 4.47144 11.4741 4.50858 11.0941 4.81144C10.7141 5.11715 10.5455 5.68858 10.3684 6.29429C10.2141 6.82572 10.0512 7.37715 9.72551 7.78858C9.39979 8.19715 8.89979 8.47429 8.41979 8.74287C7.86551 9.05144 7.34265 9.34001 7.12836 9.78572C6.91979 10.2172 7.01694 10.8 7.11979 11.42C7.21122 11.9714 7.30551 12.54 7.18836 13.06C7.07408 13.56 6.74837 14.02 6.43694 14.4657C6.06265 14.98 5.71408 15.4743 5.71408 15.98C5.71408 16.4857 6.06265 16.98 6.43122 17.5029C6.74551 17.9486 7.07122 18.4086 7.18265 18.9086C7.29979 19.4286 7.20551 19.9971 7.11694 20.5486C7.01408 21.1657 6.91694 21.7514 7.12551 22.1829C7.33979 22.6257 7.86265 22.9172 8.41694 23.2257C8.89979 23.4943 9.39694 23.7714 9.72265 24.18C10.0512 24.5914 10.2112 25.14 10.3655 25.6743C10.5426 26.28 10.7084 26.8514 11.0912 27.1572C11.4684 27.46 12.0626 27.4943 12.6912 27.5343C13.2455 27.5686 13.8198 27.6029 14.2969 27.8343C14.7626 28.06 15.1426 28.48 15.5084 28.8886C15.9341 29.3629 16.3341 29.8086 16.8198 29.92C17.2798 30.0257 17.8226 29.8029 18.3969 29.5657C18.9198 29.3429 19.4569 29.1229 19.9998 29.1229Z" fill="#231F20"/>
<path d="M19.9997 26.8372C25.996 26.8372 30.8569 21.9762 30.8569 15.98C30.8569 9.98377 25.996 5.12286 19.9997 5.12286C14.0035 5.12286 9.14258 9.98377 9.14258 15.98C9.14258 21.9762 14.0035 26.8372 19.9997 26.8372Z" fill="#FFE48A"/>
<path d="M20.7166 10.2829H18.1051C17.3966 10.2829 16.8223 10.8572 16.8223 11.5657C16.8223 12.2743 17.3966 12.8486 18.1051 12.8486H19.4337V20.9657C19.4337 21.6743 20.008 22.2486 20.7166 22.2486C21.4251 22.2486 21.9994 21.6743 21.9994 20.9657V11.5657C21.9994 10.8572 21.4251 10.2829 20.7166 10.2829Z" fill="#363A47"/>
<path d="M10.4997 17.1857C10.4997 11.1886 15.3597 6.32858 21.3569 6.32858C23.7912 6.32858 26.0397 7.12858 27.8483 8.48286C25.874 6.41429 23.0883 5.12286 19.9997 5.12286C14.0026 5.12286 9.14258 9.98286 9.14258 15.98C9.14258 19.5429 10.8569 22.7029 13.5083 24.6829C11.6454 22.7314 10.4997 20.0943 10.4997 17.1857Z" fill="#DFC879"/>
<path d="M20.0003 27.1229C13.8574 27.1229 8.85742 22.1229 8.85742 15.98C8.85742 9.83716 13.8574 4.83716 20.0003 4.83716C26.1431 4.83716 31.1431 9.83716 31.1431 15.98C31.1431 22.1229 26.1431 27.1229 20.0003 27.1229ZM20.0003 5.40859C14.1717 5.40859 9.42885 10.1514 9.42885 15.98C9.42885 21.8086 14.1717 26.5514 20.0003 26.5514C25.8288 26.5514 30.5717 21.8086 30.5717 15.98C30.5717 10.1514 25.8288 5.40859 20.0003 5.40859Z" fill="#231F20"/>
<path d="M12.9317 6.85715L12.7146 7.91715L13.1031 8.93143L12.0403 8.71143L11.0289 9.10286L11.246 8.04L10.8574 7.02572L11.9203 7.24572L12.9317 6.85715Z" fill="white"/>
<path d="M28.457 22.64L28.0941 24.3914L28.737 26.0629L26.9827 25.7029L25.3141 26.3429L25.6741 24.5914L25.0312 22.92L26.7855 23.28L28.457 22.64Z" fill="white"/>
</svg>
