<svg width="35" height="35" viewBox="0 0 35 35" fill="none" xmlns="http://www.w3.org/2000/svg">
<g clip-path="url(#clip0_81_303)">
<path d="M23.8504 35C23.6044 35 23.3788 34.8701 23.2557 34.6582L16.8299 23.5293C16.7411 23.3721 16.7137 23.1875 16.7616 23.0098C16.8094 22.832 16.9256 22.6816 17.0829 22.5928L26.6942 17.0488C26.7967 16.9873 26.9198 16.96 27.036 16.96C27.0975 16.96 27.1522 16.9668 27.2137 16.9805C27.3915 17.0283 27.5419 17.1445 27.6307 17.3018L34.0565 28.4307C34.1864 28.6562 34.1795 28.9297 34.036 29.1484C33.9061 29.3398 33.6942 29.4561 33.4618 29.4561C33.4344 29.4561 33.4071 29.4561 33.3866 29.4492L27.0292 28.7178L24.4794 34.5898C24.3768 34.8291 24.1512 34.9863 23.8915 35C23.8778 35 23.8641 35 23.8504 35Z" fill="black"/>
<path d="M33.4619 28.7725L26.6055 27.9795L23.8506 34.3164L17.4316 23.1875L27.0361 17.6367L33.4619 28.7725Z" fill="url(#paint0_linear_81_303)"/>
<path d="M18.8535 22.3672L25.6143 18.457L30.4062 26.7627L25.5801 26.209L23.6455 30.6729L18.8535 22.3672Z" fill="url(#paint1_linear_81_303)"/>
<path d="M23.6457 31.0147C23.5226 31.0147 23.4132 30.9463 23.3517 30.8438L18.5597 22.5381C18.5119 22.4629 18.505 22.3672 18.5255 22.2783C18.5461 22.1895 18.6076 22.1143 18.6828 22.0732L25.4435 18.1699C25.5255 18.1221 25.6144 18.1152 25.7033 18.1357C25.7922 18.1563 25.8673 18.2178 25.9084 18.293L30.7072 26.5918C30.7687 26.7012 30.7687 26.8447 30.7004 26.9473C30.632 27.0566 30.5021 27.1113 30.3722 27.0977L25.7921 26.5713L23.9601 30.7959C23.9054 30.9121 23.7961 30.9941 23.6662 31.001C23.6593 31.0078 23.6525 31.0078 23.6457 31.0147ZM19.3185 22.4902L23.6046 29.9141L25.2658 26.0791C25.3273 25.9424 25.4709 25.8604 25.6213 25.874L29.7775 26.3525L25.4914 18.9287L19.3185 22.4902Z" fill="black"/>
<path d="M11.1492 35C11.1355 35 11.1218 35 11.1082 35C10.8484 34.9863 10.6228 34.8291 10.5203 34.5898L7.97731 28.7178L1.61989 29.4492C1.59254 29.4492 1.5652 29.4561 1.54469 29.4561C1.3191 29.4561 1.10035 29.3398 0.970471 29.1484C0.826917 28.9297 0.820081 28.6562 0.949963 28.4307L7.37574 17.3018C7.46461 17.1445 7.615 17.0283 7.79274 16.9805C7.84742 16.9668 7.90895 16.96 7.97047 16.96C8.08668 16.96 8.20973 16.9873 8.31227 17.0488L17.9099 22.5928C18.0672 22.6816 18.1834 22.832 18.2312 23.0098C18.2791 23.1875 18.2517 23.3721 18.1629 23.5293L11.7371 34.6582C11.614 34.8701 11.3884 35 11.1492 35Z" fill="black"/>
<path d="M1.53809 28.7725L8.40137 27.9795L11.1494 34.3164L17.5684 23.1875L7.96387 17.6367L1.53809 28.7725Z" fill="url(#paint2_linear_81_303)"/>
<path d="M16.1465 22.3672L9.38574 18.457L4.59375 26.7627L9.41992 26.209L11.3545 30.6729L16.1465 22.3672Z" fill="url(#paint3_linear_81_303)"/>
<path d="M11.3541 31.0147C11.3473 31.0147 11.3405 31.0147 11.3336 31.0147C11.2037 31.0078 11.0875 30.9258 11.0397 30.8096L9.20765 26.585L4.62757 27.1113C4.49769 27.125 4.37464 27.0703 4.29944 26.9609C4.22425 26.8516 4.22425 26.7148 4.28577 26.6055L9.09144 18.293C9.18714 18.1289 9.39222 18.0742 9.55628 18.1699L16.317 22.0732C16.3922 22.1211 16.4537 22.1963 16.4742 22.2783C16.4948 22.3672 16.4879 22.4561 16.4401 22.5381L11.6481 30.8438C11.5866 30.9463 11.4772 31.0147 11.3541 31.0147ZM9.41956 25.8672C9.55628 25.8672 9.67933 25.9492 9.73401 26.0723L11.402 29.9072L15.6813 22.4902L9.50843 18.9287L5.2223 26.3457L9.37855 25.8672H9.41956Z" fill="black"/>
<path d="M17.5 24.3633C24.2277 24.3633 29.6816 18.9094 29.6816 12.1816C29.6816 5.45391 24.2277 0 17.5 0C10.7723 0 5.31836 5.45391 5.31836 12.1816C5.31836 18.9094 10.7723 24.3633 17.5 24.3633Z" fill="black"/>
<path d="M17.5 23.6797C23.8502 23.6797 28.998 18.5318 28.998 12.1816C28.998 5.83144 23.8502 0.683594 17.5 0.683594C11.1498 0.683594 6.00195 5.83144 6.00195 12.1816C6.00195 18.5318 11.1498 23.6797 17.5 23.6797Z" fill="url(#paint4_linear_81_303)"/>
<path d="M17.5 21.2393C22.5024 21.2393 26.5576 17.184 26.5576 12.1816C26.5576 7.17926 22.5024 3.12402 17.5 3.12402C12.4976 3.12402 8.44238 7.17926 8.44238 12.1816C8.44238 17.184 12.4976 21.2393 17.5 21.2393Z" fill="black"/>
<path d="M17.5 20.5557C22.1248 20.5557 25.874 16.8065 25.874 12.1816C25.874 7.5568 22.1248 3.80762 17.5 3.80762C12.8752 3.80762 9.12598 7.5568 9.12598 12.1816C9.12598 16.8065 12.8752 20.5557 17.5 20.5557Z" fill="url(#paint5_linear_81_303)"/>
<path d="M13.692 18.4707C13.316 18.4707 13.0084 18.1631 13.0084 17.7871V16.0781C13.0084 15.9004 13.0767 15.7363 13.1998 15.6064L16.7545 11.8672C17.0484 11.5322 17.2808 11.2314 17.4517 10.9785C17.609 10.7461 17.7183 10.541 17.7799 10.3633C17.8345 10.2061 17.8619 10.0557 17.8619 9.91895C17.8619 9.71387 17.814 9.54981 17.7115 9.41992C17.6842 9.38574 17.6295 9.31055 17.3902 9.31055C17.1236 9.31055 17.0553 9.40625 17.0211 9.4541C16.898 9.63184 16.8365 9.90527 16.8365 10.2676C16.8365 10.6436 16.5289 10.9512 16.1529 10.9512H13.5484C13.2545 10.9512 12.9947 10.7598 12.899 10.4863L12.8853 10.4385C12.8648 10.377 12.8512 10.3086 12.8512 10.2402C12.8306 9.43359 13.0152 8.69531 13.3844 8.03906C13.7603 7.37598 14.3004 6.84961 14.9976 6.45996C15.6881 6.08398 16.4947 5.89258 17.4039 5.89258C18.3131 5.89258 19.0855 6.05664 19.7486 6.37793C20.4322 6.71289 20.9722 7.18457 21.3482 7.7998C21.7174 8.4082 21.9088 9.1123 21.9088 9.90527C21.9088 10.4453 21.8131 10.958 21.6285 11.416C21.4508 11.8604 21.1568 12.332 20.7672 12.8174C20.4595 13.2002 20.0562 13.6582 19.5709 14.1709H21.4781C21.8541 14.1709 22.1617 14.4785 22.1617 14.8545V17.7939C22.1617 18.1699 21.8541 18.4775 21.4781 18.4775L13.692 18.4707ZM18.7506 15.0869L18.7574 15.0186L18.689 15.0869H18.7506Z" fill="black"/>
<path d="M13.6923 17.7871V16.0781L17.2538 12.3252C17.5751 11.9629 17.828 11.6416 18.0126 11.3613C18.1972 11.0811 18.3339 10.8281 18.4159 10.5957C18.498 10.3633 18.539 10.1377 18.539 9.91895C18.539 9.55664 18.4433 9.25586 18.2519 9.00293C18.0605 8.75 17.7734 8.62695 17.3837 8.62695C16.9667 8.62695 16.6523 8.77734 16.4472 9.07129C16.2421 9.36523 16.1464 9.76855 16.1464 10.2676H13.5419L13.5282 10.2197C13.5146 9.53613 13.6581 8.9209 13.9726 8.36719C14.287 7.81348 14.7314 7.37598 15.3193 7.05469C15.9071 6.7334 16.5976 6.56934 17.3905 6.56934C18.1835 6.56934 18.8671 6.70605 19.4345 6.98633C20.0019 7.25977 20.4394 7.64941 20.747 8.14844C21.0546 8.64746 21.205 9.22852 21.205 9.89844C21.205 10.3564 21.1298 10.7734 20.9726 11.1562C20.8153 11.5391 20.5624 11.9492 20.2138 12.3799C19.8583 12.8174 19.3935 13.3437 18.8056 13.959L17.1376 15.7295L17.1513 15.7705H19.3456L19.4618 14.8545H21.4648V17.7939L13.6923 17.7871Z" fill="url(#paint6_linear_81_303)"/>
</g>
<defs>
<linearGradient id="paint0_linear_81_303" x1="22.7249" y1="21.2533" x2="29.542" y2="33.0545" gradientUnits="userSpaceOnUse">
<stop stop-color="#858585"/>
<stop offset="1" stop-color="#D9D9D9"/>
</linearGradient>
<linearGradient id="paint1_linear_81_303" x1="22.6202" y1="21.0724" x2="27.7069" y2="29.8781" gradientUnits="userSpaceOnUse">
<stop stop-color="#ADADAD"/>
<stop offset="1" stop-color="#E6E6E6"/>
</linearGradient>
<linearGradient id="paint2_linear_81_303" x1="12.4029" y1="21.0243" x2="5.65728" y2="32.7018" gradientUnits="userSpaceOnUse">
<stop stop-color="#858585"/>
<stop offset="1" stop-color="#D9D9D9"/>
</linearGradient>
<linearGradient id="paint3_linear_81_303" x1="12.5062" y1="20.845" x2="7.47276" y2="29.5585" gradientUnits="userSpaceOnUse">
<stop stop-color="#ADADAD"/>
<stop offset="1" stop-color="#E6E6E6"/>
</linearGradient>
<linearGradient id="paint4_linear_81_303" x1="17.5" y1="23.6742" x2="17.5" y2="0.683594" gradientUnits="userSpaceOnUse">
<stop stop-color="#B3B3B3"/>
<stop offset="0.2" stop-color="#C7C7C7"/>
<stop offset="0.43" stop-color="#D8D8D8"/>
<stop offset="0.68" stop-color="#E2E2E2"/>
<stop offset="1" stop-color="#E6E6E6"/>
</linearGradient>
<linearGradient id="paint5_linear_81_303" x1="17.5" y1="20.5543" x2="17.5" y2="3.80352" gradientUnits="userSpaceOnUse">
<stop stop-color="#616161"/>
<stop offset="1" stop-color="#9C9C9C"/>
</linearGradient>
<linearGradient id="paint6_linear_81_303" x1="17.4994" y1="17.7892" x2="17.4994" y2="6.57002" gradientUnits="userSpaceOnUse">
<stop stop-color="#B6B6B6"/>
<stop offset="1" stop-color="#EDEDED"/>
</linearGradient>
<clipPath id="clip0_81_303">
<rect width="35" height="35" fill="white"/>
</clipPath>
</defs>
</svg>
