<svg width="178" height="178" viewBox="0 0 178 178" fill="none" xmlns="http://www.w3.org/2000/svg">
<g clip-path="url(#clip0_2_3231)">
<path d="M89.0314 178.063C138.202 178.063 178.063 138.202 178.063 89.0314C178.063 39.8607 138.202 0 89.0314 0C39.8607 0 0 39.8607 0 89.0314C0 138.202 39.8607 178.063 89.0314 178.063Z" fill="url(#paint0_linear_2_3231)"/>
<path fill-rule="evenodd" clip-rule="evenodd" d="M67.2922 94.8119C60.0666 94.8119 54.4118 88.4659 52.0243 82.12C51.7729 81.4289 52.0871 80.7377 52.7154 80.4864C53.4065 80.2351 54.0977 80.5492 54.349 81.1775C56.4853 86.7695 61.2604 92.2986 67.2922 92.2986C73.5753 92.2986 78.7902 86.0155 80.6752 79.7953C80.8637 79.1041 81.5548 78.7271 82.2459 78.9156C82.9371 79.1041 83.3141 79.8581 83.0627 80.4864C80.9265 87.6491 74.8319 94.8119 67.2922 94.8119Z" fill="white"/>
<path fill-rule="evenodd" clip-rule="evenodd" d="M53.1552 82.9368C52.7154 82.9368 52.2755 82.6855 52.087 82.2457C51.7729 81.743 45.427 69.868 49.2597 60.1292C51.0817 55.4797 54.8516 52.1497 60.5692 50.2647C60.6949 50.2019 63.3338 49.3851 66.5382 49.3851C71.5018 49.3851 75.0832 51.3329 76.8424 54.9771C80.361 54.7886 82.937 55.9195 84.5078 58.3699C88.0892 63.7734 85.5759 74.706 82.9999 80.6749C82.7485 81.3032 82.0574 81.6174 81.4291 81.366C80.8008 81.1775 80.4866 80.4864 80.6751 79.8581C80.8008 79.4183 83.314 70.622 75.2088 64.653C73.5752 67.0406 68.9886 71.7529 58.3073 71.4388C57.4277 71.7529 53.4693 73.7007 54.4118 81.4917C54.4746 82.12 54.1605 82.6855 53.5322 82.874C53.4065 82.874 53.2808 82.9368 53.1552 82.9368Z" fill="white"/>
<path fill-rule="evenodd" clip-rule="evenodd" d="M95.6915 128.615H83.5023V124.531H96.9481V127.358C96.9481 128.049 96.3827 128.615 95.6915 128.615ZM80.9891 128.615H53.3435V123.337V123.274V123.211V117.054C53.3435 116.363 52.778 115.797 52.0869 115.797C51.3957 115.797 50.8303 116.363 50.8303 117.054V122.018H37.4473V119.065H43.102C47.6259 119.065 51.2701 115.42 51.2701 110.959C51.2701 106.436 47.6259 102.791 43.102 102.791H42.2852C44.987 100.341 48.5055 98.8959 52.2754 98.8959H59.1239C59.4381 98.8959 59.7522 99.0215 60.0036 99.2729L67.1663 106.498L74.3918 99.2729C74.6432 99.0215 74.9573 98.8959 75.2715 98.8959H82.12C90.2881 98.8959 96.9481 105.556 96.9481 113.787V122.018H83.5023V117.054C83.5023 116.363 82.9369 115.797 82.2457 115.797C81.5546 115.797 80.9891 116.363 80.9891 117.054V123.274V128.615ZM50.8303 128.615H38.7039C38.0127 128.615 37.4473 128.049 37.4473 127.358V124.531H50.8303V128.615Z" fill="white"/>
<path fill-rule="evenodd" clip-rule="evenodd" d="M112.97 94.8119C105.744 94.8119 100.09 88.4659 97.702 82.12C97.4507 81.4289 97.7648 80.7377 98.3931 80.4864C99.0214 80.2351 99.7754 80.5492 100.027 81.1775C102.163 86.7695 106.938 92.2986 112.97 92.2986C119.253 92.2986 124.468 86.0155 126.353 79.7953C126.541 79.1041 127.233 78.7271 127.924 78.9156C128.552 79.1041 128.929 79.8581 128.74 80.4864C126.604 87.6491 120.51 94.8119 112.97 94.8119Z" fill="white"/>
<path fill-rule="evenodd" clip-rule="evenodd" d="M98.8329 82.9368C98.3931 82.9368 97.9533 82.6855 97.7648 82.2457C97.4506 81.743 91.1047 69.868 94.9374 60.1292C96.7595 55.4797 100.529 52.1497 106.247 50.2647C106.373 50.2019 109.012 49.3851 112.153 49.3851C117.18 49.3851 120.761 51.3329 122.52 54.9771C126.039 54.7886 128.615 55.9195 130.186 58.3699C133.767 63.7734 131.254 74.706 128.678 80.6749C128.426 81.3032 127.735 81.6174 127.107 81.366C126.479 81.1775 126.164 80.4864 126.353 79.8581C126.416 79.4183 128.929 70.622 120.887 64.653C119.253 67.0406 114.666 71.7529 103.922 71.4388C103.105 71.7529 99.1471 73.7007 100.09 81.4917C100.152 82.12 99.7754 82.6855 99.2099 82.874C99.0842 82.874 98.9586 82.9368 98.8329 82.9368Z" fill="white"/>
<path fill-rule="evenodd" clip-rule="evenodd" d="M141.369 128.615H131.316V122.457H142.626V127.358C142.626 128.049 142.061 128.615 141.369 128.615ZM128.803 128.615H99.2727C99.3984 128.238 99.4612 127.798 99.4612 127.358V113.787C99.4612 108.132 96.7595 103.106 92.5498 99.9012C94.2462 99.2729 96.0683 98.8959 97.9533 98.8959H104.802C105.116 98.8959 105.43 99.0215 105.681 99.2729L112.844 106.498L120.07 99.2729C120.321 99.0215 120.635 98.8959 120.949 98.8959H127.735C135.966 98.8959 142.626 105.556 142.626 113.787V119.944H131.316V114.981C131.316 114.289 130.751 113.724 130.06 113.724C129.306 113.724 128.803 114.289 128.803 114.981V121.201V128.615Z" fill="white"/>
<path fill-rule="evenodd" clip-rule="evenodd" d="M43.1022 116.551H36.6306C35.9395 116.551 35.374 115.986 35.374 115.295V106.561C35.374 105.87 35.9395 105.305 36.6306 105.305H43.1022C46.2438 105.305 48.757 107.818 48.757 110.959C48.757 114.038 46.2438 116.551 43.1022 116.551Z" fill="white"/>
</g>
<defs>
<linearGradient id="paint0_linear_2_3231" x1="-0.000251324" y1="89.0107" x2="178.021" y2="89.0107" gradientUnits="userSpaceOnUse">
<stop stop-color="#26A9E0"/>
<stop offset="0.0901961" stop-color="#2297D3"/>
<stop offset="0.231373" stop-color="#1E84C6"/>
<stop offset="0.368627" stop-color="#1C79BE"/>
<stop offset="0.521569" stop-color="#1B75BB"/>
<stop offset="0.960784" stop-color="#2B388F"/>
<stop offset="1" stop-color="#2B388F"/>
</linearGradient>
<clipPath id="clip0_2_3231">
<rect width="178" height="178" fill="white"/>
</clipPath>
</defs>
</svg>
